<svg xmlns="http://www.w3.org/2000/svg" width="250px" height="250px" viewBox="0 0 40.62 40.59">
  <defs>
    <style>
      .cls-1 {
        fill: #ffcb24;
      }
    </style>
  </defs>
  <title>Asset 27</title>
  <g id="Layer_2" data-name="Layer 2">
    <g id="Layer_1-2" data-name="Layer 1">
      <circle class="cls-1" cx="16.22" cy="24.37" r="16.22" />
      <path
        d="M22.72,14a25.35,25.35,0,0,1-6.3-.87A22.82,22.82,0,0,1,8.76,9.63c-3.27-2.45-3.26-4.7-3-5.83S7.19.71,11.24.19a22.55,22.55,0,0,1,8.39.74A22.87,22.87,0,0,1,27.3,4.41c3.27,2.46,3.26,4.71,3,5.83s-1.4,3.09-5.45,3.62A17.37,17.37,0,0,1,22.72,14ZM9.58,4.8c0,.2.4.94,1.83,1.93a19.62,19.62,0,0,0,6,2.61,19.76,19.76,0,0,0,6.51.69,4.29,4.29,0,0,0,2.55-.78c0-.21-.41-.95-1.84-1.94a19.7,19.7,0,0,0-6-2.61h0A19.47,19.47,0,0,0,12.13,4,4.25,4.25,0,0,0,9.58,4.8Z" />
      <path
        d="M35.94,35c-1.23,0-3-.57-4.87-3a22.79,22.79,0,0,1-3.55-7.63A22.66,22.66,0,0,1,26.7,16c.48-4.06,2.44-5.18,3.56-5.49s3.38-.33,5.86,2.91A22.66,22.66,0,0,1,39.67,21a22.89,22.89,0,0,1,.83,8.38c-.49,4.06-2.45,5.18-3.57,5.48A3.5,3.5,0,0,1,35.94,35ZM31.29,14.24a4.29,4.29,0,0,0-.76,2.56,19.85,19.85,0,0,0,.75,6.5,19.59,19.59,0,0,0,2.67,6c1,1.42,1.75,1.78,1.95,1.82a4.33,4.33,0,0,0,.76-2.56,19.58,19.58,0,0,0-.75-6.5,19.48,19.48,0,0,0-2.67-6C32.24,14.64,31.5,14.28,31.29,14.24Z" />
      <path
        d="M26.54,14v6.28A6.28,6.28,0,1,1,20.26,14h6.28m3.9-3.9H20.26A10.19,10.19,0,0,0,10.07,20.29h0a10.19,10.19,0,1,0,20.37,0V10.11Z" />
      <path
        d="M33.6,3.81a3.21,3.21,0,1,1,0,6.42H30.38V7A3.22,3.22,0,0,1,33.6,3.81M33.6,0a7,7,0,0,0-7,7v7h7a7,7,0,0,0,7-7h0a7,7,0,0,0-7-7Z" />
      <path
        d="M23.1,17a.56.56,0,0,0-.4.17L19.82,20l-1.37-1.37a.54.54,0,0,0-.39-.16.55.55,0,0,0-.4.16l-1.14,1.14a.57.57,0,0,0,0,.79l2.91,2.9a.54.54,0,0,0,.79,0l4.41-4.41a.56.56,0,0,0,0-.79l-1.14-1.13A.56.56,0,0,0,23.1,17Z" />
    </g>
  </g>
</svg>